<svg width="332" height="82" viewBox="0 0 332 82" fill="none" xmlns="http://www.w3.org/2000/svg">
<g filter="url(#filter0_d_2_339)">
<g clip-path="url(#clip0_2_339)">
<rect x="4" y="2" width="324" height="74" rx="6.72761" fill="white"/>
<rect x="4.5" y="2.5" width="86" height="73" fill="#F3F3F3"/>
<path d="M38.2154 33.816V36.008H33.0314V38.424H37.9594V40.616H33.0314V45H30.5354V33.816H38.2154ZM42.5922 45H40.1922V36.392H42.5922V45ZM40.3842 35.304C40.1176 35.0267 39.9842 34.6907 39.9842 34.296C39.9842 33.9013 40.1176 33.5707 40.3842 33.304C40.6616 33.0267 40.9976 32.888 41.3922 32.888C41.7869 32.888 42.1176 33.0267 42.3842 33.304C42.6616 33.5707 42.8002 33.9013 42.8002 34.296C42.8002 34.6907 42.6616 35.0267 42.3842 35.304C42.1176 35.5707 41.7869 35.704 41.3922 35.704C40.9976 35.704 40.6616 35.5707 40.3842 35.304ZM49.4921 38.504C48.7775 38.504 48.2441 38.76 47.8921 39.272C47.5401 39.7733 47.3641 40.44 47.3641 41.272V45H44.9641V36.392H47.3641V37.528C47.6735 37.176 48.0575 36.8773 48.5161 36.632C48.9855 36.3867 49.4601 36.2587 49.9401 36.248L49.9561 38.504H49.4921ZM58.0597 42.328C58.0597 43.1707 57.7451 43.848 57.1157 44.36C56.4971 44.872 55.7077 45.128 54.7477 45.128C54.1077 45.128 53.4411 45.016 52.7477 44.792C52.0544 44.5573 51.4304 44.216 50.8757 43.768L51.9317 42.264C52.8277 42.9573 53.7824 43.304 54.7957 43.304C55.1051 43.304 55.3504 43.2453 55.5317 43.128C55.7131 43 55.8037 42.8347 55.8037 42.632C55.8037 42.4293 55.6757 42.2427 55.4197 42.072C55.1744 41.9013 54.8117 41.7413 54.3317 41.592C53.8624 41.4427 53.4997 41.3147 53.2437 41.208C52.9984 41.1013 52.7157 40.9467 52.3957 40.744C51.7451 40.3387 51.4197 39.7413 51.4197 38.952C51.4197 38.152 51.7397 37.5013 52.3797 37C53.0197 36.4987 53.8464 36.248 54.8597 36.248C55.8731 36.248 56.8864 36.5893 57.8997 37.272L57.0037 38.872C56.2571 38.36 55.5104 38.104 54.7637 38.104C54.0277 38.104 53.6597 38.3067 53.6597 38.712C53.6597 38.936 53.7771 39.112 54.0117 39.24C54.2464 39.368 54.6357 39.5173 55.1797 39.688C55.7237 39.8587 56.1077 39.992 56.3317 40.088C56.5664 40.1733 56.8437 40.312 57.1637 40.504C57.7611 40.8667 58.0597 41.4747 58.0597 42.328ZM62.7937 38.12V41.976C62.7937 42.3067 62.8791 42.568 63.0497 42.76C63.2204 42.9413 63.4231 43.032 63.6577 43.032C64.1057 43.032 64.4844 42.8293 64.7937 42.424L65.6897 44.104C64.9431 44.7867 64.1537 45.128 63.3217 45.128C62.5004 45.128 61.8017 44.856 61.2257 44.312C60.6604 43.768 60.3777 43.0267 60.3777 42.088V38.12H59.3697V36.392H60.3777V33.816H62.7937V36.392H64.8737V38.12H62.7937Z" fill="#BDBDBD"/>
<rect x="4.5" y="2.5" width="86" height="73" stroke="#BDBDBD"/>
<rect x="91.5" y="2.5" width="46" height="73" fill="white"/>
<path d="M111.479 33.8V35.88H113.719V45H116.311V33.8H111.479Z" fill="#F4511E"/>
<rect x="91.5" y="2.5" width="46" height="73" stroke="#E9E9E9"/>
<rect x="138.5" y="2.5" width="49" height="73" fill="#F4511E"/>
<path d="M162.364 39.784C163.026 39.112 163.495 38.5787 163.772 38.184C164.06 37.7787 164.204 37.3893 164.204 37.016C164.204 36.6427 164.082 36.3333 163.836 36.088C163.591 35.832 163.276 35.704 162.892 35.704C162.188 35.704 161.522 36.2053 160.892 37.208L158.892 36.024C159.415 35.2133 159.986 34.6 160.604 34.184C161.234 33.768 162.028 33.56 162.988 33.56C163.959 33.56 164.807 33.8693 165.532 34.488C166.268 35.096 166.636 35.928 166.636 36.984C166.636 37.56 166.487 38.1147 166.188 38.648C165.9 39.1707 165.362 39.8427 164.572 40.664L162.556 42.76H166.972V45H159.084V43.144L162.364 39.784Z" fill="white"/>
<rect x="138.5" y="2.5" width="49" height="73" stroke="#E9E9E9"/>
<rect x="188.5" y="2.5" width="49" height="73" fill="white"/>
<path d="M214.122 38.36L216.65 35.48V33.8H208.81V35.88H213.578L211.274 38.488V40.2H212.458C213.93 40.2 214.554 40.728 214.554 41.576C214.554 42.488 213.754 43.016 212.458 43.016C211.29 43.016 210.106 42.648 209.258 42.008L208.25 43.992C209.338 44.76 210.954 45.192 212.522 45.192C215.706 45.192 217.162 43.464 217.162 41.576C217.162 39.928 216.138 38.68 214.122 38.36Z" fill="#F4511E"/>
<rect x="188.5" y="2.5" width="49" height="73" stroke="#E9E9E9"/>
<rect x="238.5" y="2.5" width="89" height="73" fill="white"/>
<path d="M272.265 33.8V40.6L266.697 33.8H264.553V45H267.113V38.2L272.697 45H274.825V33.8H272.265ZM285.831 40.728C285.831 37.96 283.879 36.264 281.351 36.264C278.727 36.264 276.759 38.12 276.759 40.696C276.759 43.256 278.695 45.128 281.671 45.128C283.223 45.128 284.423 44.648 285.223 43.736L283.895 42.296C283.303 42.856 282.647 43.128 281.735 43.128C280.423 43.128 279.511 42.472 279.271 41.4H285.783C285.799 41.192 285.831 40.92 285.831 40.728ZM281.367 38.152C282.487 38.152 283.303 38.856 283.479 39.944H279.239C279.415 38.84 280.231 38.152 281.367 38.152ZM295.662 45L292.334 40.6L295.534 36.392H292.878L291.006 38.904L289.182 36.392H286.382L289.582 40.664L286.27 45H288.99L290.942 42.36L292.83 45H295.662ZM301.854 42.824C301.582 43.032 301.214 43.144 300.846 43.144C300.174 43.144 299.774 42.744 299.774 42.008V38.504H301.918V36.584H299.774V34.488H297.278V36.584H295.95V38.504H297.278V42.04C297.278 44.088 298.462 45.128 300.494 45.128C301.262 45.128 302.014 44.952 302.526 44.584L301.854 42.824Z" fill="#F4511E"/>
<rect x="238.5" y="2.5" width="89" height="73" stroke="#E8E8E8"/>
</g>
<rect x="4.67276" y="2.67276" width="322.654" height="72.6545" rx="6.05484" stroke="#BDBDBD" stroke-width="1.34552"/>
</g>
<defs>
<filter id="filter0_d_2_339" x="0" y="0" width="332" height="82" filterUnits="userSpaceOnUse" color-interpolation-filters="sRGB">
<feFlood flood-opacity="0" result="BackgroundImageFix"/>
<feColorMatrix in="SourceAlpha" type="matrix" values="0 0 0 0 0 0 0 0 0 0 0 0 0 0 0 0 0 0 127 0" result="hardAlpha"/>
<feOffset dy="2"/>
<feGaussianBlur stdDeviation="2"/>
<feColorMatrix type="matrix" values="0 0 0 0 0 0 0 0 0 0 0 0 0 0 0 0 0 0 0.1 0"/>
<feBlend mode="normal" in2="BackgroundImageFix" result="effect1_dropShadow_2_339"/>
<feBlend mode="normal" in="SourceGraphic" in2="effect1_dropShadow_2_339" result="shape"/>
</filter>
<clipPath id="clip0_2_339">
<rect x="4" y="2" width="324" height="74" rx="6.72761" fill="white"/>
</clipPath>
</defs>
</svg>
